# xmcd
#
# Track frame offsets:
#       150
#       13575
#       29961
#       47834
#       60723
#       70107
#       85691
#       100125
#       114478
#
# Disc length: 1686 seconds
#
# Revision: 1
# Processed by: cddbd v1.4PL0 Copyright (c) Steve Scherf et al.
# Submitted via: MusiCat 1.1
#
DISCID=74069409
DTITLE=Damon Scott - My whole world turns around you
DYEAR=1900
DGENRE=
TTITLE0=Guadelupe days
TTITLE1=fever
TTITLE2=My Whole World Turns Around You
TTITLE3=Innocent Kiss
TTITLE4=Back In The Swing Of Things
TTITLE5=Groovin On the Countryside
TTITLE6=What Am I Gonna Do 
TTITLE7=Matilda
TTITLE8=I Like Them All
EXTD=\n\n
EXTT0=
EXTT1=
EXTT2=
EXTT3=
EXTT4=
EXTT5=
EXTT6=
EXTT7=
EXTT8=
PLAYORDER=
